HIERARCHY
ROOT Hips
{
	OFFSET	0.0000	81.3154	2.8200
	CHANNELS 6 Xposition Yposition Zposition Xrotation Yrotation Zrotation
	JOINT Spine
	{
		OFFSET	0.0000	8.5301	-5.0776
		CHANNELS 3 Xrotation Yrotation Zrotation
		JOINT Spine1
		{
			OFFSET	0.0000	7.7844	0.3660
			CHANNELS 3 Xrotation Yrotation Zrotation
			JOINT Spine2
			{
				OFFSET	0.0000	9.6322	-1.9296
				CHANNELS 3 Xrotation Yrotation Zrotation
				JOINT Neck
				{
					OFFSET	0.0000	21.7059	-0.4063
					CHANNELS 3 Xrotation Yrotation Zrotation
					JOINT Head
					{
						OFFSET	0.0000	12.2576	3.3340
						CHANNELS 3 Xrotation Yrotation Zrotation
						End Site
						{
							OFFSET	0.0001	17.1270	0.5113
						}
					}
				}
				JOINT LeftShoulder
				{
					OFFSET	1.9722	20.9472	6.4590
					CHANNELS 3 Xrotation Yrotation Zrotation
					JOINT LeftArm
					{
						OFFSET	11.5222	3.0046	-4.8617
						CHANNELS 3 Xrotation Yrotation Zrotation
						JOINT LeftForeArm
						{
							OFFSET	27.1949	-0.0966	-0.2357
							CHANNELS 3 Xrotation Yrotation Zrotation
							JOINT LeftHand
							{
								OFFSET	22.6862	0.0658	-0.1359
								CHANNELS 3 Xrotation Yrotation Zrotation
								JOINT LeftHandIndex1
								{
									OFFSET	8.7925	0.7689	2.4421
									CHANNELS 3 Xrotation Yrotation Zrotation
									JOINT LeftHandIndex2
									{
										OFFSET	3.2889	-0.8020	0.5795
										CHANNELS 3 Xrotation Yrotation Zrotation
										JOINT LeftHandIndex3
										{
											OFFSET	2.2452	-0.5477	0.3958
											CHANNELS 3 Xrotation Yrotation Zrotation
											End Site
											{
												OFFSET	1.5977	-0.4769	0.2592
											}
										}
									}
								}
								JOINT LeftHandMiddle1
								{
									OFFSET	8.9238	0.8880	0.2126
									CHANNELS 3 Xrotation Yrotation Zrotation
									JOINT LeftHandMiddle2
									{
										OFFSET	4.0665	0.0113	-0.0240
										CHANNELS 3 Xrotation Yrotation Zrotation
										JOINT LeftHandMiddle3
										{
											OFFSET	2.2539	0.0068	-0.0137
											CHANNELS 3 Xrotation Yrotation Zrotation
											End Site
											{
												OFFSET	2.0246	-0.1430	0.0027
											}
										}
									}
								}
								JOINT LeftHandRing1
								{
									OFFSET	8.4571	0.5925	-2.0007
									CHANNELS 3 Xrotation Yrotation Zrotation
									JOINT LeftHandRing2
									{
										OFFSET	3.6899	-0.1868	-0.2310
										CHANNELS 3 Xrotation Yrotation Zrotation
										JOINT LeftHandRing3
										{
											OFFSET	2.1026	-0.1058	-0.1321
											CHANNELS 3 Xrotation Yrotation Zrotation
											End Site
											{
												OFFSET	1.8591	-0.2286	-0.0879
											}
										}
									}
								}
								JOINT LeftHandPinky1
								{
									OFFSET	7.8478	-0.5964	-3.4554
									CHANNELS 3 Xrotation Yrotation Zrotation
									JOINT LeftHandPinky2
									{
										OFFSET	2.2696	-0.4733	-0.6265
										CHANNELS 3 Xrotation Yrotation Zrotation
										JOINT LeftHandPinky3
										{
											OFFSET	1.6643	-0.3466	-0.4597
											CHANNELS 3 Xrotation Yrotation Zrotation
											End Site
											{
												OFFSET	1.4772	-0.4059	-0.3389
											}
										}
									}
								}
								JOINT LeftHandThumb1
								{
									OFFSET	1.8188	-1.3767	1.3788
									CHANNELS 3 Xrotation Yrotation Zrotation
									JOINT LeftHandThumb2
									{
										OFFSET	3.3864	-1.1122	2.5532
										CHANNELS 3 Xrotation Yrotation Zrotation
										JOINT LeftHandThumb3
										{
											OFFSET	2.2299	-0.7979	1.6066
											CHANNELS 3 Xrotation Yrotation Zrotation
											End Site
											{
												OFFSET	1.6398	-0.5645	1.1229
											}
										}
									}
								}
							}
						}
					}
				}
				JOINT RightShoulder
				{
					OFFSET	-1.9722	20.9472	6.4590
					CHANNELS 3 Xrotation Yrotation Zrotation
					JOINT RightArm
					{
						OFFSET	-11.5242	3.0051	-4.8625
						CHANNELS 3 Xrotation Yrotation Zrotation
						JOINT RightForeArm
						{
							OFFSET	-27.1949	-0.0966	-0.2357
							CHANNELS 3 Xrotation Yrotation Zrotation
							JOINT RightHand
							{
								OFFSET	-22.6862	0.0659	-0.1359
								CHANNELS 3 Xrotation Yrotation Zrotation
								JOINT RightHandIndex1
								{
									OFFSET	-8.7925	0.7689	2.4421
									CHANNELS 3 Xrotation Yrotation Zrotation
									JOINT RightHandIndex2
									{
										OFFSET	-3.2889	-0.8020	0.5795
										CHANNELS 3 Xrotation Yrotation Zrotation
										JOINT RightHandIndex3
										{
											OFFSET	-2.2452	-0.5477	0.3958
											CHANNELS 3 Xrotation Yrotation Zrotation
											End Site
											{
												OFFSET	-1.5977	-0.4769	0.2592
											}
										}
									}
								}
								JOINT RightHandMiddle1
								{
									OFFSET	-8.9237	0.8880	0.2126
									CHANNELS 3 Xrotation Yrotation Zrotation
									JOINT RightHandMiddle2
									{
										OFFSET	-4.0665	0.0113	-0.0240
										CHANNELS 3 Xrotation Yrotation Zrotation
										JOINT RightHandMiddle3
										{
											OFFSET	-2.2539	0.0068	-0.0137
											CHANNELS 3 Xrotation Yrotation Zrotation
											End Site
											{
												OFFSET	-2.0246	-0.1430	0.0027
											}
										}
									}
								}
								JOINT RightHandRing1
								{
									OFFSET	-8.4571	0.5925	-2.0007
									CHANNELS 3 Xrotation Yrotation Zrotation
									JOINT RightHandRing2
									{
										OFFSET	-3.6899	-0.1868	-0.2310
										CHANNELS 3 Xrotation Yrotation Zrotation
										JOINT RightHandRing3
										{
											OFFSET	-2.1026	-0.1058	-0.1321
											CHANNELS 3 Xrotation Yrotation Zrotation
											End Site
											{
												OFFSET	-1.8591	-0.2286	-0.0879
											}
										}
									}
								}
								JOINT RightHandPinky1
								{
									OFFSET	-7.8478	-0.5964	-3.4554
									CHANNELS 3 Xrotation Yrotation Zrotation
									JOINT RightHandPinky2
									{
										OFFSET	-2.2696	-0.4733	-0.6265
										CHANNELS 3 Xrotation Yrotation Zrotation
										JOINT RightHandPinky3
										{
											OFFSET	-1.6643	-0.3466	-0.4597
											CHANNELS 3 Xrotation Yrotation Zrotation
											End Site
											{
												OFFSET	-1.4772	-0.4059	-0.3389
											}
										}
									}
								}
								JOINT RightHandThumb1
								{
									OFFSET	-1.8188	-1.3767	1.3788
									CHANNELS 3 Xrotation Yrotation Zrotation
									JOINT RightHandThumb2
									{
										OFFSET	-3.3864	-1.1122	2.5532
										CHANNELS 3 Xrotation Yrotation Zrotation
										JOINT RightHandThumb3
										{
											OFFSET	-2.2299	-0.7979	1.6066
											CHANNELS 3 Xrotation Yrotation Zrotation
											End Site
											{
												OFFSET	-1.6398	-0.5645	1.1229
											}
										}
									}
								}
							}
						}
					}
				}
			}
		}
	}
	JOINT RightUpLeg
	{
		OFFSET	-10.0856	3.8558	-0.8274
		CHANNELS 3 Xrotation Yrotation Zrotation
		JOINT RightLeg
		{
			OFFSET	-0.7302	-39.6899	0.0000
			CHANNELS 3 Xrotation Yrotation Zrotation
			JOINT RightFoot
			{
				OFFSET	0.0000	-38.9731	0.0000
				CHANNELS 3 Xrotation Yrotation Zrotation
				JOINT RightToeBase
				{
					OFFSET	0.0000	-4.2835	8.9573
					CHANNELS 3 Xrotation Yrotation Zrotation
					End Site
					{
						OFFSET	0.0000	0.0000	6.0091
					}
				}
			}
		}
	}
	JOINT LeftUpLeg
	{
		OFFSET	10.0855	3.8561	-0.8274
		CHANNELS 3 Xrotation Yrotation Zrotation
		JOINT LeftLeg
		{
			OFFSET	0.7302	-39.6902	0.0000
			CHANNELS 3 Xrotation Yrotation Zrotation
			JOINT LeftFoot
			{
				OFFSET	0.0000	-38.9731	0.0000
				CHANNELS 3 Xrotation Yrotation Zrotation
				JOINT LeftToeBase
				{
					OFFSET	0.0000	-4.2835	8.9574
					CHANNELS 3 Xrotation Yrotation Zrotation
					End Site
					{
						OFFSET	0.0000	0.0000	6.0091
					}
				}
			}
		}
	}
}
MOTION
Frames:	5
Frame Time: 0.0375885000
	7.0279	73.9423	-71.2964	21.443980	-20.840370	-338.591900	0.306255	-1.948341	-1.182700	0.306260	-1.948336	-1.182700	0.306253	-1.948346	-1.182699	-0.809620	-5.570606	-3.632013	4.257541	-1.135193	-6.151930	-0.000005	0.000007	-12.603130	-0.751485	-12.033830	-50.469990	-12.230580	-42.078010	-10.059120	-104.070100	-4.597539	9.960892	0.000000	0.000000	0.000003	0.000001	-0.000002	0.000002	0.000000	0.000000	0.000003	0.000000	0.000000	0.000003	0.000001	-0.000002	0.000002	0.000000	0.000000	0.000003	0.000000	0.000000	0.000003	0.000001	-0.000002	0.000002	0.000000	0.000000	0.000003	0.000000	0.000000	0.000003	0.000001	-0.000002	0.000002	0.000000	0.000000	0.000003	0.000000	0.000000	0.000003	0.000001	-0.000002	0.000002	0.000000	0.000000	0.000003	-0.000005	0.000004	13.140310	13.453020	10.757110	59.115630	-8.256315	64.552470	-7.581585	205.234400	3.736282	-4.786505	-0.000002	0.000000	-0.000003	0.000000	-0.000001	-0.000004	-0.000003	0.000001	-0.000010	-0.000002	0.000000	-0.000003	0.000000	-0.000001	-0.000004	-0.000003	0.000001	-0.000010	-0.000002	0.000000	-0.000003	0.000000	-0.000001	-0.000004	-0.000003	0.000001	-0.000010	-0.000002	0.000000	-0.000003	0.000000	-0.000001	-0.000004	-0.000003	0.000001	-0.000010	-0.000002	0.000000	-0.000003	0.000000	-0.000001	-0.000004	-0.000003	0.000001	-0.000010	-30.967960	-1.975105	6.094471	32.485040	-11.505810	7.206533	0.000001	0.000000	0.000002	0.000001	0.000000	0.000000	-56.273740	7.003016	-6.880456	42.049960	1.134947	-0.210164	0.000000	0.000002	-0.000001	0.000000	-0.000002	0.000001
	4.8329	74.7033	-72.4328	23.020920	-27.705520	-338.067200	0.262215	-1.891777	-1.180755	0.262216	-1.891770	-1.180753	0.262216	-1.891767	-1.180758	-0.785862	-5.347346	-3.459328	4.087634	-1.099154	-5.948071	-0.000001	0.000000	-12.481550	8.959022	-14.175630	-48.083520	-4.520302	-42.929570	-0.216213	-104.070100	-4.597536	9.960895	0.000000	0.000004	-0.000003	-0.000006	-0.000003	-0.000004	0.000004	0.000003	0.000000	0.000000	0.000004	-0.000003	-0.000006	-0.000003	-0.000004	0.000004	0.000003	0.000000	0.000000	0.000004	-0.000003	-0.000006	-0.000003	-0.000004	0.000004	0.000003	0.000000	0.000000	0.000004	-0.000003	-0.000006	-0.000003	-0.000004	0.000004	0.000003	0.000000	0.000000	0.000004	-0.000003	-0.000006	-0.000003	-0.000004	0.000004	0.000003	0.000000	0.000000	0.000000	12.972640	13.390950	14.651390	58.012280	-6.213162	62.765750	-4.035069	205.234400	3.736279	-4.786489	0.000002	0.000001	0.000000	0.000000	0.000000	0.000000	0.000000	0.000000	0.000000	0.000002	0.000001	0.000000	0.000000	0.000000	0.000000	0.000000	0.000000	0.000000	0.000002	0.000001	0.000000	0.000000	0.000000	0.000000	0.000000	0.000000	0.000000	0.000002	0.000001	0.000000	0.000000	0.000000	0.000000	0.000000	0.000000	0.000000	0.000002	0.000001	0.000000	0.000000	0.000000	0.000000	0.000000	0.000000	0.000000	-30.260530	-14.304670	5.963423	37.846250	-4.536097	3.317653	-0.000005	0.000001	0.000003	0.000001	0.000000	0.000000	-53.121400	2.680238	-4.707296	47.120470	3.756340	-3.136079	0.000002	-0.000002	0.000000	0.000000	0.000000	0.000000
	0.9166	74.1478	-72.8877	22.503410	-31.703780	-338.495600	0.391030	-1.680619	-1.066098	0.391032	-1.680608	-1.066099	0.391025	-1.680608	-1.066098	-0.758499	-5.114446	-3.283809	3.910275	-1.058198	-5.726754	0.000002	0.000000	-12.355720	12.524010	-16.142850	-46.808180	-0.858530	-38.138320	1.032392	-104.070100	-4.597531	9.960896	0.000000	0.000003	-0.000003	-0.000003	-0.000001	-0.000003	0.000001	0.000003	-0.000003	0.000000	0.000003	-0.000003	-0.000003	-0.000001	-0.000003	0.000001	0.000003	-0.000003	0.000000	0.000003	-0.000003	-0.000003	-0.000001	-0.000003	0.000001	0.000003	-0.000003	0.000000	0.000003	-0.000003	-0.000003	-0.000001	-0.000003	0.000001	0.000003	-0.000003	0.000000	0.000003	-0.000003	-0.000003	-0.000001	-0.000003	0.000001	0.000003	-0.000003	0.000000	-0.000004	12.795670	14.335320	12.195300	58.268940	-5.633323	59.957860	0.549561	205.234400	3.736281	-4.786500	0.000003	0.000001	0.000003	0.000000	0.000001	0.000003	0.000000	0.000001	0.000003	0.000003	0.000001	0.000003	0.000000	0.000001	0.000003	0.000000	0.000001	0.000003	0.000003	0.000001	0.000003	0.000000	0.000001	0.000003	0.000000	0.000001	0.000003	0.000003	0.000001	0.000003	0.000000	0.000001	0.000003	0.000000	0.000001	0.000003	0.000003	0.000001	0.000003	0.000000	0.000001	0.000003	0.000000	0.000001	0.000003	-31.640460	-12.876450	1.706876	46.350610	-9.690219	9.487374	-0.000002	-0.000003	0.000003	0.000001	-0.000001	-0.000002	-46.766960	1.770039	-5.869147	48.699560	0.260993	-0.000846	0.000000	0.000000	0.000000	0.000000	0.000000	0.000000
	-2.3703	73.8220	-72.7784	20.717260	-35.834720	-339.462800	0.602493	-1.448347	-0.920070	0.602494	-1.448354	-0.920069	0.602496	-1.448348	-0.920072	-0.727685	-4.871737	-3.105668	3.725733	-1.012726	-5.488526	-0.000003	0.000004	-12.225670	13.531200	-16.684280	-47.424870	-0.597288	-32.184260	0.590610	-104.070100	-4.597538	9.960892	0.000007	0.000007	-0.000003	0.000002	0.000003	-0.000003	0.000000	0.000003	-0.000010	0.000007	0.000007	-0.000003	0.000002	0.000003	-0.000003	0.000000	0.000003	-0.000010	0.000007	0.000007	-0.000003	0.000002	0.000003	-0.000003	0.000000	0.000003	-0.000010	0.000007	0.000007	-0.000003	0.000002	0.000003	-0.000003	0.000000	0.000003	-0.000010	0.000007	0.000007	-0.000003	0.000002	0.000003	-0.000003	0.000000	0.000003	-0.000010	-0.000003	-0.000005	12.609750	18.487150	13.247140	58.224740	-0.560059	53.211120	-4.967044	205.234400	3.736284	-4.786488	0.000000	-0.000003	-0.000007	0.000000	0.000000	-0.000003	0.000000	-0.000001	-0.000003	0.000000	-0.000003	-0.000007	0.000000	0.000000	-0.000003	0.000000	-0.000001	-0.000003	0.000000	-0.000003	-0.000007	0.000000	0.000000	-0.000003	0.000000	-0.000001	-0.000003	0.000000	-0.000003	-0.000007	0.000000	0.000000	-0.000003	0.000000	-0.000001	-0.000003	0.000000	-0.000003	-0.000007	0.000000	0.000000	-0.000003	0.000000	-0.000001	-0.000003	-33.105180	-15.678270	-4.325977	55.599420	-7.483856	9.470984	0.000002	0.000003	-0.000002	-0.000003	0.000000	-0.000002	-37.566480	-1.311888	-7.253339	45.239010	-3.944424	3.967240	-0.000003	-0.000003	0.000001	0.000003	0.000000	-0.000001
	-5.7204	71.7836	-73.2895	19.438110	-39.563620	-339.553700	0.377540	-1.516416	-1.014554	0.377539	-1.516427	-1.014553	0.377540	-1.516420	-1.014556	-0.693657	-4.619654	-2.925329	3.534470	-0.963181	-5.234355	0.000001	-0.000012	-12.091450	12.767140	-12.860850	-49.251400	-3.501982	-28.100900	-1.332107	-104.070100	-4.597528	9.960897	-0.000001	0.000001	0.000000	0.000000	0.000002	-0.000003	0.000000	0.000002	-0.000003	-0.000001	0.000001	0.000000	0.000000	0.000002	-0.000003	0.000000	0.000002	-0.000003	-0.000001	0.000001	0.000000	0.000000	0.000002	-0.000003	0.000000	0.000002	-0.000003	-0.000001	0.000001	0.000000	0.000000	0.000002	-0.000003	0.000000	0.000002	-0.000003	-0.000001	0.000001	0.000000	0.000000	0.000002	-0.000003	0.000000	0.000002	-0.000003	0.000000	-0.000011	12.415430	18.573720	7.792037	60.171960	-4.810977	44.865330	0.609234	205.234400	3.736281	-4.786514	0.000001	0.000001	0.000003	0.000000	0.000000	-0.000003	0.000000	0.000000	0.000000	0.000001	0.000001	0.000003	0.000000	0.000000	-0.000003	0.000000	0.000000	0.000000	0.000001	0.000001	0.000003	0.000000	0.000000	-0.000003	0.000000	0.000000	0.000000	0.000001	0.000001	0.000003	0.000000	0.000000	-0.000003	0.000000	0.000000	0.000000	0.000001	0.000001	0.000003	0.000000	0.000000	-0.000003	0.000000	0.000000	0.000000	-35.991370	-10.097670	-10.871880	64.594910	-6.212706	10.894750	0.000000	0.000009	-0.000009	0.000002	-0.000003	0.000002	-29.150170	-11.526750	-7.526127	38.165420	-2.809019	2.314484	-0.000002	-0.000010	0.000002	0.000001	-0.000004	-0.000001
